<svg width="12" height="15" viewBox="0 0 12 15" fill="none" xmlns="http://www.w3.org/2000/svg">
<path d="M7.06602 1.3335H6.63935C4.54849 1.3335 3.50305 1.3335 2.70445 1.73617C2.00198 2.09037 1.43085 2.65554 1.07292 3.3507C0.666016 4.14098 0.666016 5.17552 0.666016 7.24461V9.77794M6.59194 3.44461H7.54009C8.86762 3.44461 9.53139 3.44461 10.0384 3.70608C10.4845 3.93608 10.8471 4.30308 11.0743 4.75448C11.3327 5.26765 11.3327 5.93944 11.3327 7.28299V10.1618C11.3327 11.5053 11.3327 12.1771 11.0743 12.6903C10.8471 13.1417 10.4845 13.5087 10.0384 13.7387C9.53139 14.0002 8.86762 14.0002 7.54009 14.0002H6.59194C5.26441 14.0002 4.60064 14.0002 4.09359 13.7387C3.64758 13.5087 3.28496 13.1417 3.0577 12.6903C2.79935 12.1771 2.79935 11.5053 2.79935 10.1618V7.28299C2.79935 5.93943 2.79935 5.26765 3.0577 4.75448C3.28496 4.30308 3.64758 3.93608 4.09359 3.70608C4.60064 3.44461 5.26441 3.44461 6.59194 3.44461Z" stroke="white" stroke-linecap="round"/>
</svg>
