<svg width="24" height="23" viewBox="0 0 24 23" fill="none" xmlns="http://www.w3.org/2000/svg">
<path d="M7.37606 3.84773L6.86634 3.29757L7.37606 3.84773ZM10.7517 1.2893L10.9742 2.00553L10.7517 1.2893ZM16.6238 3.84773L16.1141 4.39789L16.6238 3.84773ZM13.2482 1.2893L13.0257 2.00553L13.2482 1.2893ZM3.55871 21.3149L3.21033 21.9791H3.21033L3.55871 21.3149ZM1.6708 19.3714L0.998632 19.7041L1.6708 19.3714ZM22.3291 19.3714L23.0013 19.7041L22.3291 19.3714ZM20.4412 21.3149L20.7896 21.9791L20.4412 21.3149ZM22.6642 10.4442L23.3919 10.2627L22.6642 10.4442ZM20.5118 7.44994L21.0216 6.89978L20.5118 7.44994ZM22.0778 9.08887L22.7079 8.68207L22.0778 9.08887ZM1.33574 10.4442L0.608049 10.2627H0.608049L1.33574 10.4442ZM3.48807 7.44994L2.97834 6.89978L3.48807 7.44994ZM1.9221 9.08887L1.29201 8.68207H1.29201L1.9221 9.08887ZM13.5988 13.792L13.4046 14.5164L13.5988 13.792ZM15.508 15.7011L16.2324 15.507L15.508 15.7011ZM10.4011 13.792L10.207 13.0675L10.4011 13.792ZM8.49195 15.7011L7.76751 15.507L8.49195 15.7011ZM22.05 12.7388V14.6841H23.55V12.7388H22.05ZM15.888 21.0496H8.11195V22.5496H15.888V21.0496ZM1.94995 14.6841V12.7388H0.449951V14.6841H1.94995ZM3.99779 8.00011L7.88579 4.3979L6.86634 3.29757L2.97834 6.89978L3.99779 8.00011ZM16.1141 4.39789L20.0021 8.0001L21.0216 6.89978L17.1336 3.29756L16.1141 4.39789ZM7.88579 4.3979C8.7116 3.63279 9.29968 3.08866 9.7954 2.69666C10.2841 2.31018 10.6362 2.11057 10.9742 2.00553L10.5292 0.573077C9.94308 0.755179 9.42445 1.07768 8.865 1.52008C8.31252 1.95696 7.67485 2.54848 6.86634 3.29757L7.88579 4.3979ZM17.1336 3.29756C16.325 2.54848 15.6874 1.95696 15.1349 1.52008C14.5755 1.07768 14.0568 0.755179 13.4707 0.573077L13.0257 2.00553C13.3637 2.11057 13.7158 2.31018 14.2045 2.69666C14.7002 3.08866 15.2883 3.63279 16.1141 4.39789L17.1336 3.29756ZM10.9742 2.00553C11.6433 1.79764 12.3566 1.79764 13.0257 2.00553L13.4707 0.573077C12.5118 0.27512 11.4881 0.27512 10.5292 0.573077L10.9742 2.00553ZM8.11195 21.0496C6.8895 21.0496 6.01909 21.049 5.33744 20.9917C4.66521 20.9351 4.24389 20.8274 3.90709 20.6507L3.21033 21.9791C3.79763 22.2871 4.44322 22.4217 5.21172 22.4864C5.97081 22.5502 6.91497 22.5496 8.11195 22.5496V21.0496ZM0.449951 14.6841C0.449951 15.9174 0.449401 16.8862 0.511159 17.6644C0.573563 18.4506 0.703116 19.107 0.998632 19.7041L2.34297 19.0387C2.16764 18.6845 2.06177 18.2426 2.00646 17.5457C1.9505 16.8407 1.94995 15.9415 1.94995 14.6841H0.449951ZM3.90709 20.6507C3.23701 20.2992 2.68821 19.7362 2.34297 19.0387L0.998632 19.7041C1.48174 20.6802 2.25469 21.4778 3.21033 21.9791L3.90709 20.6507ZM22.05 14.6841C22.05 15.9415 22.0494 16.8407 21.9934 17.5457C21.9381 18.2426 21.8323 18.6845 21.6569 19.0387L23.0013 19.7041C23.2968 19.107 23.4263 18.4506 23.4887 17.6644C23.5505 16.8862 23.55 15.9174 23.55 14.6841H22.05ZM15.888 22.5496C17.0849 22.5496 18.0291 22.5502 18.7882 22.4864C19.5567 22.4217 20.2023 22.2871 20.7896 21.9791L20.0928 20.6507C19.756 20.8274 19.3347 20.9351 18.6625 20.9917C17.9808 21.049 17.1104 21.0496 15.888 21.0496V22.5496ZM21.6569 19.0387C21.3117 19.7362 20.7629 20.2992 20.0928 20.6507L20.7896 21.9791C21.7452 21.4778 22.5182 20.6802 23.0013 19.7041L21.6569 19.0387ZM23.55 12.7388C23.55 11.6095 23.5552 10.9173 23.3919 10.2627L21.9365 10.6258C22.0447 11.0598 22.05 11.5344 22.05 12.7388H23.55ZM20.0021 8.0001C20.8724 8.80645 21.2086 9.12531 21.4477 9.49566L22.7079 8.68207C22.3427 8.11639 21.8363 7.65464 21.0216 6.89978L20.0021 8.0001ZM23.3919 10.2627C23.2517 9.70091 23.0207 9.16657 22.7079 8.68207L21.4477 9.49566C21.6705 9.84076 21.8359 10.2227 21.9365 10.6258L23.3919 10.2627ZM1.94995 12.7388C1.94995 11.5344 1.95516 11.0598 2.06344 10.6258L0.608049 10.2627C0.444739 10.9173 0.449951 11.6095 0.449951 12.7388H1.94995ZM2.97834 6.89978C2.16359 7.65464 1.65723 8.11639 1.29201 8.68207L2.5522 9.49566C2.79131 9.12531 3.12748 8.80645 3.99779 8.00011L2.97834 6.89978ZM2.06344 10.6258C2.16399 10.2227 2.3294 9.84076 2.5522 9.49566L1.29201 8.68207C0.979212 9.16657 0.748199 9.70091 0.608049 10.2627L2.06344 10.6258ZM14.85 17.3V21.8H16.35V17.3H14.85ZM9.14995 21.8V17.3H7.64995V21.8H9.14995ZM12 14.45C12.8852 14.45 13.1807 14.4564 13.4046 14.5164L13.7929 13.0675C13.3301 12.9435 12.7886 12.95 12 12.95V14.45ZM16.35 17.3C16.35 16.5113 16.3564 15.9698 16.2324 15.507L14.7835 15.8953C14.8435 16.1192 14.85 16.4147 14.85 17.3H16.35ZM13.4046 14.5164C14.0776 14.6967 14.6032 15.2223 14.7835 15.8953L16.2324 15.507C15.9134 14.3165 14.9834 13.3865 13.7929 13.0675L13.4046 14.5164ZM12 12.95C11.2113 12.95 10.6698 12.9435 10.207 13.0675L10.5953 14.5164C10.8192 14.4564 11.1147 14.45 12 14.45V12.95ZM9.14995 17.3C9.14995 16.4147 9.15639 16.1192 9.2164 15.8953L7.76751 15.507C7.64351 15.9698 7.64995 16.5113 7.64995 17.3H9.14995ZM10.207 13.0675C9.01646 13.3865 8.08652 14.3165 7.76751 15.507L9.2164 15.8953C9.39671 15.2223 9.92233 14.6967 10.5953 14.5164L10.207 13.0675Z" fill="#F7F7F7"/>
</svg>
