<svg width="26" height="24" viewBox="0 0 26 24" fill="none" xmlns="http://www.w3.org/2000/svg">
<path d="M3.73005 16.455L4.18404 15.564L3.73005 16.455ZM1.54497 14.27L2.43597 13.816L1.54497 14.27ZM24.455 14.27L23.564 13.816L24.455 14.27ZM22.27 16.455L21.816 15.564L22.27 16.455ZM22.27 1.54497L21.816 2.43597L22.27 1.54497ZM24.455 3.73005L23.564 4.18404L24.455 3.73005ZM3.73005 1.54497L4.18404 2.43597L3.73005 1.54497ZM1.54497 3.73005L2.43597 4.18404L1.54497 3.73005ZM7 22C6.44772 22 6 22.4477 6 23C6 23.5523 6.44772 24 7 24V22ZM19 24C19.5523 24 20 23.5523 20 23C20 22.4477 19.5523 22 19 22V24ZM9 2H17V0H9V2ZM17 16H9V18H17V16ZM9 16C7.58337 16 6.58104 15.9992 5.79744 15.9352C5.02552 15.8721 4.55435 15.7527 4.18404 15.564L3.27606 17.346C3.9753 17.7023 4.73898 17.8554 5.63458 17.9286C6.51851 18.0008 7.61637 18 9 18V16ZM0 9C0 10.3836 -0.000777721 11.4815 0.071442 12.3654C0.144616 13.261 0.297677 14.0247 0.653961 14.7239L2.43597 13.816C2.24729 13.4457 2.12787 12.9745 2.0648 12.2026C2.00078 11.419 2 10.4166 2 9H0ZM4.18404 15.564C3.43139 15.1805 2.81947 14.5686 2.43597 13.816L0.653961 14.7239C1.2292 15.8529 2.14708 16.7708 3.27606 17.346L4.18404 15.564ZM24 9C24 10.4166 23.9992 11.419 23.9352 12.2026C23.8721 12.9745 23.7527 13.4457 23.564 13.816L25.346 14.7239C25.7023 14.0247 25.8554 13.261 25.9286 12.3654C26.0008 11.4815 26 10.3836 26 9H24ZM17 18C18.3836 18 19.4815 18.0008 20.3654 17.9286C21.261 17.8554 22.0247 17.7023 22.7239 17.346L21.816 15.564C21.4457 15.7527 20.9745 15.8721 20.2026 15.9352C19.419 15.9992 18.4166 16 17 16V18ZM23.564 13.816C23.1805 14.5686 22.5686 15.1805 21.816 15.564L22.7239 17.346C23.8529 16.7708 24.7708 15.8529 25.346 14.7239L23.564 13.816ZM17 2C18.4166 2 19.419 2.00078 20.2026 2.0648C20.9745 2.12787 21.4457 2.24729 21.816 2.43597L22.7239 0.653961C22.0247 0.297677 21.261 0.144616 20.3654 0.071442C19.4815 -0.000777721 18.3836 0 17 0V2ZM26 9C26 7.61637 26.0008 6.51851 25.9286 5.63458C25.8554 4.73898 25.7023 3.9753 25.346 3.27606L23.564 4.18404C23.7527 4.55435 23.8721 5.02552 23.9352 5.79744C23.9992 6.58104 24 7.58337 24 9H26ZM21.816 2.43597C22.5686 2.81947 23.1805 3.43139 23.564 4.18404L25.346 3.27606C24.7708 2.14708 23.8529 1.2292 22.7239 0.653961L21.816 2.43597ZM9 0C7.61637 0 6.51851 -0.000777721 5.63458 0.071442C4.73898 0.144616 3.9753 0.297677 3.27606 0.653961L4.18404 2.43597C4.55435 2.24729 5.02552 2.12787 5.79744 2.0648C6.58104 2.00078 7.58337 2 9 2V0ZM2 9C2 7.58337 2.00078 6.58104 2.0648 5.79744C2.12787 5.02552 2.24729 4.55435 2.43597 4.18404L0.653961 3.27606C0.297677 3.9753 0.144616 4.73898 0.071442 5.63458C-0.000777721 6.51851 0 7.61637 0 9H2ZM3.27606 0.653961C2.14708 1.2292 1.2292 2.14708 0.653961 3.27606L2.43597 4.18404C2.81947 3.43139 3.43139 2.81947 4.18404 2.43597L3.27606 0.653961ZM10.0136 16.8356L9.01361 22.8356L10.9864 23.1644L11.9864 17.1644L10.0136 16.8356ZM14.0136 17.1644L15.0136 23.1644L16.9864 22.8356L15.9864 16.8356L14.0136 17.1644ZM7 24H10V22H7V24ZM10 24H16V22H10V24ZM16 24H19V22H16V24Z" fill="white"/>
</svg>
