<svg width="24" height="24" viewBox="0 0 24 24" fill="none" xmlns="http://www.w3.org/2000/svg">
<path d="M12 15.4202C14.6095 15.4202 16.725 13.2443 16.725 10.5602C16.725 7.87609 14.6095 5.7002 12 5.7002C9.39041 5.7002 7.27495 7.87609 7.27495 10.5602C7.27495 13.2443 9.39041 15.4202 12 15.4202ZM12 15.4202C5.69995 15.4202 5.64463 18.6733 5.64463 22.2521M12 15.4202C18.3 15.5611 18.3553 18.6733 18.3553 22.2521M18.3553 22.2521C17.0321 22.8002 15.3547 22.8002 12 22.8002C8.64517 22.8002 6.96778 22.8002 5.64463 22.2521M18.3553 22.2521C20.1195 21.5214 21.5211 20.1197 22.2519 18.3555C22.8 17.0324 22.8 15.355 22.8 12.0002C22.8 8.64542 22.8 6.96803 22.2519 5.64487C21.5211 3.88067 20.1195 2.47902 18.3553 1.74826C17.0321 1.2002 15.3547 1.2002 12 1.2002C8.64517 1.2002 6.96778 1.2002 5.64463 1.74826C3.88043 2.47902 2.47878 3.88067 1.74802 5.64487C1.19995 6.96803 1.19995 8.64542 1.19995 12.0002C1.19995 15.355 1.19995 17.0324 1.74802 18.3555C2.47878 20.1197 3.88043 21.5214 5.64463 22.2521" stroke="#F7F7F7" stroke-width="1.5" stroke-linecap="round"/>
</svg>
