<svg width="26" height="19" viewBox="0 0 26 19" fill="none" xmlns="http://www.w3.org/2000/svg">
<path d="M8.26315 5.26471V7.14706M8.26315 7.14706V9.02941M8.26315 7.14706H6.36842M8.26315 7.14706H10.1579M15.9155 12.7941H10.0845C8.93329 12.7941 7.84452 13.314 7.12539 14.207L5.28885 16.4877C4.77361 17.1275 3.99356 17.5 3.16878 17.5C2.2151 17.5 1.34871 16.9796 1.17576 16.0479C0.933049 14.7404 0.828724 12.4857 1.63159 9.02942C2.02128 7.35179 2.41098 6.02805 2.77137 4.99026C3.59081 2.63057 5.88527 1.5 8.39786 1.5H17.6021C20.1147 1.5 22.4092 2.6306 23.2287 4.99033C23.589 6.02811 23.9787 7.35183 24.3684 9.02942C25.1713 12.4857 25.067 14.7404 24.8242 16.0479C24.6513 16.9796 23.7849 17.5 22.8312 17.5C22.0064 17.5 21.2264 17.1275 20.7111 16.4877L18.8746 14.207C18.1555 13.314 17.0667 12.7941 15.9155 12.7941Z" stroke="white" stroke-width="2" stroke-linecap="round"/>
<path d="M16.7895 8.74705C16.7895 8.38319 17.0864 8.08822 17.4527 8.08822H18.0211C18.3874 8.08822 18.6843 8.38319 18.6843 8.74705V9.31175C18.6843 9.67561 18.3874 9.97058 18.0211 9.97058H17.4527C17.0864 9.97058 16.7895 9.67561 16.7895 9.31175V8.74705Z" fill="white"/>
<path d="M16.7895 4.98234C16.7895 4.61848 17.0864 4.32352 17.4527 4.32352H18.0211C18.3874 4.32352 18.6843 4.61848 18.6843 4.98234V5.54705C18.6843 5.9109 18.3874 6.20587 18.0211 6.20587H17.4527C17.0864 6.20587 16.7895 5.9109 16.7895 5.54705V4.98234Z" fill="white"/>
<path d="M18.6843 6.86469C18.6843 6.50084 18.9812 6.20587 19.3474 6.20587H19.9159C20.2821 6.20587 20.579 6.50084 20.579 6.86469V7.4294C20.579 7.79326 20.2821 8.08822 19.9159 8.08822H19.3474C18.9812 8.08822 18.6843 7.79326 18.6843 7.4294V6.86469Z" fill="white"/>
<path d="M14.8948 6.86469C14.8948 6.50084 15.1917 6.20587 15.558 6.20587H16.1264C16.4926 6.20587 16.7895 6.50084 16.7895 6.86469V7.4294C16.7895 7.79326 16.4926 8.08822 16.1264 8.08822H15.558C15.1917 8.08822 14.8948 7.79326 14.8948 7.4294V6.86469Z" fill="white"/>
</svg>
