<svg width="25" height="25" viewBox="0 0 25 25" fill="none" xmlns="http://www.w3.org/2000/svg">
<path d="M1 5.83358C1 4.30176 1 3.53584 1.2569 2.93435C1.57877 2.18074 2.17765 1.58029 2.92929 1.25757C3.5292 1 4.29311 1 5.82092 1C7.34874 1 8.11264 1 8.71256 1.25757C9.4642 1.58029 10.0631 2.18074 10.3849 2.93435C10.6418 3.53584 10.6418 4.30176 10.6418 5.83358C10.6418 7.3654 10.6418 8.13132 10.3849 8.73281C10.0631 9.48642 9.4642 10.0869 8.71256 10.4096C8.11264 10.6672 7.34874 10.6672 5.82092 10.6672C4.29311 10.6672 3.5292 10.6672 2.92929 10.4096C2.17765 10.0869 1.57877 9.48642 1.2569 8.73281C1 8.13132 1 7.3654 1 5.83358Z" stroke="white" stroke-width="1.5"/>
<path d="M14.3982 5.83358C14.3982 4.30176 14.3982 3.53584 14.655 2.93435C14.9769 2.18074 15.5758 1.58029 16.3274 1.25757C16.9274 1 17.6913 1 19.2191 1C20.7469 1 21.5108 1 22.1107 1.25757C22.8624 1.58029 23.4612 2.18074 23.7831 2.93435C24.04 3.53584 24.04 4.30176 24.04 5.83358C24.04 7.3654 24.04 8.13132 23.7831 8.73281C23.4612 9.48642 22.8624 10.0869 22.1107 10.4096C21.5108 10.6672 20.7469 10.6672 19.2191 10.6672C17.6913 10.6672 16.9274 10.6672 16.3274 10.4096C15.5758 10.0869 14.9769 9.48642 14.655 8.73281C14.3982 8.13132 14.3982 7.3654 14.3982 5.83358Z" stroke="white" stroke-width="1.5"/>
<path d="M1 19.2064C1 17.6746 1 16.9087 1.2569 16.3072C1.57877 15.5536 2.17765 14.9531 2.92929 14.6304C3.5292 14.3728 4.29311 14.3728 5.82092 14.3728C7.34874 14.3728 8.11264 14.3728 8.71256 14.6304C9.4642 14.9531 10.0631 15.5536 10.3849 16.3072C10.6418 16.9087 10.6418 17.6746 10.6418 19.2064C10.6418 20.7382 10.6418 21.5042 10.3849 22.1056C10.0631 22.8593 9.4642 23.4597 8.71256 23.7824C8.11264 24.04 7.34874 24.04 5.82092 24.04C4.29311 24.04 3.5292 24.04 2.92929 23.7824C2.17765 23.4597 1.57877 22.8593 1.2569 22.1056C1 21.5042 1 20.7382 1 19.2064Z" stroke="white" stroke-width="1.5"/>
<path d="M13.9805 14.9205C13.9805 14.4013 14.4013 13.9805 14.9205 13.9805H15.8805C16.3996 13.9805 16.8205 14.4013 16.8205 14.9205V15.8805C16.8205 16.3996 16.3996 16.8205 15.8805 16.8205H14.9205C14.4013 16.8205 13.9805 16.3996 13.9805 15.8805V14.9205ZM23.5605 13.9805C24.0796 13.9805 24.5005 14.4013 24.5005 14.9205V15.8805C24.5005 16.3996 24.0796 16.8205 23.5605 16.8205H22.6005C22.0813 16.8205 21.6605 16.3996 21.6605 15.8805V14.9205C21.6605 14.4013 22.0813 13.9805 22.6005 13.9805H23.5605ZM17.8205 18.7605C17.8205 18.2413 18.2413 17.8205 18.7605 17.8205H19.7205C20.2396 17.8205 20.6605 18.2413 20.6605 18.7605V19.7205C20.6605 20.2396 20.2396 20.6605 19.7205 20.6605H18.7605C18.2413 20.6605 17.8205 20.2396 17.8205 19.7205V18.7605ZM21.6605 22.6005C21.6605 22.0813 22.0813 21.6605 22.6005 21.6605H23.5605C24.0796 21.6605 24.5005 22.0813 24.5005 22.6005V23.5605C24.5005 24.0796 24.0796 24.5005 23.5605 24.5005H22.6005C22.0813 24.5005 21.6605 24.0796 21.6605 23.5605V22.6005ZM15.8805 21.6605C16.3996 21.6605 16.8205 22.0813 16.8205 22.6005V23.5605C16.8205 24.0796 16.3996 24.5005 15.8805 24.5005H14.9205C14.4013 24.5005 13.9805 24.0796 13.9805 23.5605V22.6005C13.9805 22.0813 14.4013 21.6605 14.9205 21.6605H15.8805Z" stroke="white"/>
</svg>
