<svg width="12" height="16" viewBox="0 0 12 16" fill="none" xmlns="http://www.w3.org/2000/svg">
<path d="M4.09409 8.93928C4.24594 8.66518 4.33333 8.3438 4.33333 8.00016C4.33333 7.65652 4.24594 7.33515 4.09409 7.06105M4.09409 8.93928C3.8022 9.46613 3.27214 9.81834 2.66667 9.81834C1.74619 9.81834 1 9.00432 1 8.00016C1 6.99601 1.74619 6.18198 2.66667 6.18198C3.27214 6.18198 3.8022 6.53419 4.09409 7.06105M4.09409 8.93928L7.90591 11.9095M4.09409 7.06105L7.90591 4.09079M7.90591 4.09079C8.1978 4.61765 8.72786 4.96986 9.33333 4.96986C10.2538 4.96986 11 4.15583 11 3.15168C11 2.14752 10.2538 1.3335 9.33333 1.3335C8.41286 1.3335 7.66667 2.14752 7.66667 3.15168C7.66667 3.49532 7.75406 3.81669 7.90591 4.09079ZM7.90591 11.9095C7.75406 12.1836 7.66667 12.505 7.66667 12.8486C7.66667 13.8528 8.41286 14.6668 9.33333 14.6668C10.2538 14.6668 11 13.8528 11 12.8486C11 11.8445 10.2538 11.0305 9.33333 11.0305C8.72786 11.0305 8.1978 11.3827 7.90591 11.9095Z" stroke="white" stroke-linecap="round" stroke-linejoin="round"/>
</svg>
